# xmcd CD database file
#
# Track frame offsets:
#	150
#	11086
#	17995
#	23451
#	30443
#	40759
#	58543
#	60546
#	68184
#	72180
#	75716
#	84190
#	108038
#	120719
#	140157
#	150150
#	152785
#	168378
#	178347
#
# Disc length: 2521 seconds
#
# Revision: 0
# Processed by: cddbd v1.5.1PL2 Copyright (c) Steve Scherf et al.
# Submitted via: Feurio! 1.68 - http://www.feurio.com
#
DISCID=e809d713
DTITLE=Willie Nelson - Red Headed Stranger (edit)
DYEAR=1900
DGENRE=Countryrock
TTITLE0=Time Of The Preacher
TTITLE1=I Couldn't Believe It Was True
TTITLE2=Time Of The Preacher Theme
TTITLE3=Blue Rock Montana - Red Headed Stranger
TTITLE4=Blue Eyes Crying In The Rain
TTITLE5=Red Headed Stranger
TTITLE6=Time Of The Preacher Theme
TTITLE7=Just As I Am
TTITLE8=Denver
TTITLE9=O'er The Waves
TTITLE10=Down Yonder
TTITLE11=Can I Sleep In Your Arms
TTITLE12=Remember Me
TTITLE13=Hands On The Wheel
TTITLE14=Bandera
TTITLE15=Bach Minuet In G
TTITLE16=Can't Help It (If I'm Still In Love With You)
TTITLE17=A Maiden's Prayer
TTITLE18=Bonaparte's Retreat
EXTD=
EXTT0=
EXTT1=
EXTT2=
EXTT3=
EXTT4=
EXTT5=
EXTT6=
EXTT7=
EXTT8=
EXTT9=
EXTT10=
EXTT11=
EXTT12=
EXTT13=
EXTT14=
EXTT15=
EXTT16=
EXTT17=
EXTT18=
PLAYORDER=
